<mxfile host="app.diagrams.net" modified="2023-02-22T13:32:57.716Z" agent="5.0 (Windows NT 10.0; Win64; x64) AppleWebKit/537.36 (KHTML, like Gecko) Chrome/110.0.0.0 Safari/537.36" etag="QQN7wdX4kCMyJpnblpZJ" version="20.8.22" type="github">
  <diagram name="Page-1" id="7e0a89b8-554c-2b80-1dc8-d5c74ca68de4">
    <mxGraphModel dx="969" dy="494" grid="1" gridSize="10" guides="1" tooltips="1" connect="1" arrows="1" fold="1" page="1" pageScale="1" pageWidth="1100" pageHeight="850" background="none" math="0" shadow="0">
      <root>
        <mxCell id="0" />
        <mxCell id="1" parent="0" />
        <mxCell id="gLcQFld23vdDw-t2S_X--1" value="" style="shape=cylinder3;whiteSpace=wrap;html=1;boundedLbl=1;backgroundOutline=1;size=15;rotation=90;" vertex="1" parent="1">
          <mxGeometry x="840" y="290" width="130" height="80" as="geometry" />
        </mxCell>
        <mxCell id="gLcQFld23vdDw-t2S_X--3" value="" style="shape=cylinder3;whiteSpace=wrap;html=1;boundedLbl=1;backgroundOutline=1;size=2.840661088992306;rotation=90;" vertex="1" parent="1">
          <mxGeometry x="935.04" y="311.76" width="16.71" height="36.49" as="geometry" />
        </mxCell>
        <mxCell id="gLcQFld23vdDw-t2S_X--24" style="edgeStyle=orthogonalEdgeStyle;rounded=0;orthogonalLoop=1;jettySize=auto;html=1;exitX=0;exitY=0.25;exitDx=0;exitDy=0;startArrow=classic;startFill=1;endArrow=none;endFill=0;entryX=0.5;entryY=1;entryDx=0;entryDy=0;" edge="1" parent="1" source="gLcQFld23vdDw-t2S_X--4" target="gLcQFld23vdDw-t2S_X--25">
          <mxGeometry relative="1" as="geometry">
            <mxPoint x="450" y="250" as="targetPoint" />
            <Array as="points">
              <mxPoint x="446" y="275" />
              <mxPoint x="446" y="250" />
            </Array>
          </mxGeometry>
        </mxCell>
        <mxCell id="gLcQFld23vdDw-t2S_X--4" value="" style="swimlane;startSize=0;" vertex="1" parent="1">
          <mxGeometry x="510" y="220" width="265" height="220" as="geometry" />
        </mxCell>
        <mxCell id="gLcQFld23vdDw-t2S_X--11" style="edgeStyle=orthogonalEdgeStyle;rounded=0;orthogonalLoop=1;jettySize=auto;html=1;exitX=1;exitY=0.5;exitDx=0;exitDy=0;" edge="1" parent="gLcQFld23vdDw-t2S_X--4" source="gLcQFld23vdDw-t2S_X--5">
          <mxGeometry relative="1" as="geometry">
            <mxPoint x="95" y="110" as="targetPoint" />
            <Array as="points">
              <mxPoint x="165" y="110" />
              <mxPoint x="165" y="110" />
            </Array>
          </mxGeometry>
        </mxCell>
        <mxCell id="gLcQFld23vdDw-t2S_X--13" style="edgeStyle=orthogonalEdgeStyle;rounded=0;orthogonalLoop=1;jettySize=auto;html=1;exitX=1;exitY=0.5;exitDx=0;exitDy=0;" edge="1" parent="gLcQFld23vdDw-t2S_X--4" source="gLcQFld23vdDw-t2S_X--5" target="gLcQFld23vdDw-t2S_X--6">
          <mxGeometry relative="1" as="geometry" />
        </mxCell>
        <mxCell id="gLcQFld23vdDw-t2S_X--19" style="edgeStyle=orthogonalEdgeStyle;rounded=0;orthogonalLoop=1;jettySize=auto;html=1;exitX=0.5;exitY=0;exitDx=0;exitDy=0;startArrow=classic;startFill=1;endArrow=none;endFill=0;" edge="1" parent="gLcQFld23vdDw-t2S_X--4" source="gLcQFld23vdDw-t2S_X--5">
          <mxGeometry relative="1" as="geometry">
            <mxPoint x="490" y="50" as="targetPoint" />
            <Array as="points">
              <mxPoint x="55" y="20" />
              <mxPoint x="490" y="20" />
              <mxPoint x="490" y="60" />
            </Array>
          </mxGeometry>
        </mxCell>
        <mxCell id="gLcQFld23vdDw-t2S_X--5" value="SAMD51" style="whiteSpace=wrap;html=1;aspect=fixed;" vertex="1" parent="gLcQFld23vdDw-t2S_X--4">
          <mxGeometry x="15" y="70" width="80" height="80" as="geometry" />
        </mxCell>
        <mxCell id="gLcQFld23vdDw-t2S_X--14" style="edgeStyle=orthogonalEdgeStyle;rounded=0;orthogonalLoop=1;jettySize=auto;html=1;exitX=0.75;exitY=0;exitDx=0;exitDy=0;" edge="1" parent="gLcQFld23vdDw-t2S_X--4" source="gLcQFld23vdDw-t2S_X--6">
          <mxGeometry relative="1" as="geometry">
            <mxPoint x="350" y="144" as="targetPoint" />
          </mxGeometry>
        </mxCell>
        <mxCell id="gLcQFld23vdDw-t2S_X--15" style="edgeStyle=orthogonalEdgeStyle;rounded=0;orthogonalLoop=1;jettySize=auto;html=1;exitX=0.25;exitY=0;exitDx=0;exitDy=0;" edge="1" parent="gLcQFld23vdDw-t2S_X--4" source="gLcQFld23vdDw-t2S_X--6">
          <mxGeometry relative="1" as="geometry">
            <mxPoint x="350" y="75" as="targetPoint" />
          </mxGeometry>
        </mxCell>
        <mxCell id="gLcQFld23vdDw-t2S_X--6" value="DRV8825PWP" style="rounded=0;whiteSpace=wrap;html=1;rotation=90;" vertex="1" parent="gLcQFld23vdDw-t2S_X--4">
          <mxGeometry x="145" y="71.25" width="137.5" height="77.5" as="geometry" />
        </mxCell>
        <mxCell id="gLcQFld23vdDw-t2S_X--18" value="GPIO" style="text;strokeColor=none;align=center;fillColor=none;html=1;verticalAlign=middle;whiteSpace=wrap;rounded=0;" vertex="1" parent="gLcQFld23vdDw-t2S_X--4">
          <mxGeometry x="105" y="90" width="60" height="30" as="geometry" />
        </mxCell>
        <mxCell id="gLcQFld23vdDw-t2S_X--16" value="82929 Crouzet &lt;br&gt;bi-polar stepper motor" style="text;strokeColor=none;align=center;fillColor=none;html=1;verticalAlign=middle;whiteSpace=wrap;rounded=0;" vertex="1" parent="1">
          <mxGeometry x="837.5" y="400" width="135" height="30" as="geometry" />
        </mxCell>
        <mxCell id="gLcQFld23vdDw-t2S_X--21" value="" style="rounded=0;whiteSpace=wrap;html=1;" vertex="1" parent="1">
          <mxGeometry x="980" y="280" width="37.5" height="20" as="geometry" />
        </mxCell>
        <mxCell id="gLcQFld23vdDw-t2S_X--22" value="" style="whiteSpace=wrap;html=1;aspect=fixed;" vertex="1" parent="1">
          <mxGeometry x="990" y="300" width="10" height="10" as="geometry" />
        </mxCell>
        <mxCell id="gLcQFld23vdDw-t2S_X--23" value="Microswitch" style="text;strokeColor=none;align=center;fillColor=none;html=1;verticalAlign=middle;whiteSpace=wrap;rounded=0;" vertex="1" parent="1">
          <mxGeometry x="970" y="310" width="72.5" height="30" as="geometry" />
        </mxCell>
        <mxCell id="gLcQFld23vdDw-t2S_X--25" value="14.8 Vdc" style="text;strokeColor=none;align=center;fillColor=none;html=1;verticalAlign=middle;whiteSpace=wrap;rounded=0;" vertex="1" parent="1">
          <mxGeometry x="410" y="220" width="72.5" height="30" as="geometry" />
        </mxCell>
      </root>
    </mxGraphModel>
  </diagram>
</mxfile>
